<?xml version="1.0" encoding="UTF-8"?>
<!-- Uploaded to: SVG Repo, www.svgrepo.com, Generator: SVG Repo Mixer Tools -->
<svg fill="#000000" width="800px" height="800px" version="1.1" viewBox="144 144 512 512" xmlns="http://www.w3.org/2000/svg">
 <g>
  <path d="m400 207.92c-105.49 0-192.08 86.59-192.08 192.08 0 105.48 86.59 192.07 192.08 192.07 105.48 0 192.07-86.59 192.07-192.07 0-105.49-86.59-192.08-192.07-192.08zm0 368.41c-96.824 0-176.33-78.719-176.33-176.33-0.003907-97.613 79.504-176.34 176.33-176.34 96.824 0 176.33 78.719 176.33 176.33 0 97.617-79.508 176.34-176.33 176.34z"/>
  <path d="m460.61 297.66c-4.7227 0-7.8711 3.1484-7.8711 7.8711v80.293l-127.53-75.57c-2.3633-1.5742-5.5117-1.5742-7.8711 0-2.3633 1.5742-3.9375 3.9375-3.9375 7.0859v164.52c0 3.1484 1.5742 5.5117 3.9375 7.0859 1.5742 0.78906 2.3633 0.78906 3.9375 0.78906s3.1484 0 3.9375-0.78906l127.53-75.57-0.003906 81.078c0 4.7227 3.1484 7.8711 7.8711 7.8711 4.7227 0 7.8711-3.1484 7.8711-7.8711v-188.93c0-4.7227-3.1484-7.8711-7.8711-7.8711zm-131.46 170.82v-136.97l116.51 68.488z"/>
 </g>
</svg>